<svg width="30" height="30" viewBox="0 0 30 30" fill="none" xmlns="http://www.w3.org/2000/svg">
<g clip-path="url(#clip0)">
<path d="M22.7627 0H7.23712C6.18981 0 5.33786 0.852011 5.33786 1.89932V28.1007C5.33786 29.148 6.18987 30.0001 7.23718 30.0001H22.7627C23.81 30.0001 24.662 29.1481 24.662 28.1007V1.89932C24.662 0.852011 23.81 0 22.7627 0ZM6.28961 4.77375H23.7103V24.6138H6.28961V4.77375ZM7.23712 0.951755H22.7627C23.2852 0.951755 23.7103 1.37681 23.7103 1.89932V4.13924H6.28961V1.89932C6.28961 1.37681 6.71467 0.951755 7.23712 0.951755ZM22.7627 29.0482H7.23712C6.71467 29.0482 6.28955 28.6232 6.28955 28.1007V25.2483H23.7102V28.1007C23.7102 28.6232 23.2852 29.0482 22.7627 29.0482Z" fill="#D1A954"/>
<path d="M14.9999 25.6689C14.1404 25.6689 13.4413 26.3682 13.4413 27.2276C13.4413 28.087 14.1405 28.7862 14.9999 28.7862C15.8593 28.7862 16.5585 28.087 16.5585 27.2276C16.5585 26.3682 15.8593 25.6689 14.9999 25.6689ZM14.9999 28.1517C14.4903 28.1517 14.0758 27.7371 14.0758 27.2276C14.0758 26.718 14.4903 26.3034 14.9999 26.3034C15.5095 26.3034 15.924 26.718 15.924 27.2276C15.924 27.7371 15.5095 28.1517 14.9999 28.1517Z" fill="#D1A954"/>
<path d="M12.8427 3.02318H17.1573C17.3326 3.02318 17.4746 2.88111 17.4746 2.70592C17.4746 2.53074 17.3326 2.38867 17.1573 2.38867H12.8427C12.6675 2.38867 12.5255 2.53074 12.5255 2.70592C12.5255 2.88111 12.6675 3.02318 12.8427 3.02318Z" fill="#D1A954"/>
<path d="M11.7007 3.02318C11.7838 3.02318 11.8657 2.98955 11.9247 2.93054C11.9837 2.87089 12.018 2.78968 12.018 2.70592C12.018 2.62217 11.9837 2.54095 11.9247 2.48131C11.8656 2.4223 11.7838 2.38867 11.7007 2.38867C11.617 2.38867 11.5357 2.4223 11.4761 2.48131C11.4171 2.54032 11.3835 2.62217 11.3835 2.70592C11.3835 2.78968 11.4171 2.87089 11.4761 2.93054C11.5351 2.98955 11.617 3.02318 11.7007 3.02318Z" fill="#D1A954"/>
</g>
<defs>
<clipPath id="clip0">
<rect width="30" height="30" fill="white"/>
</clipPath>
</defs>
</svg>
